<?xml version="1.0" encoding="utf-8"?>
<!-- Generator: Adobe Illustrator 19.1.0, SVG Export Plug-In . SVG Version: 6.00 Build 0)  -->
<svg version="1.1" id="Layer_1" xmlns="http://www.w3.org/2000/svg" xmlns:xlink="http://www.w3.org/1999/xlink" x="0px" y="0px"
	 viewBox="0 0 1305.5 306.9" enable-background="new 0 0 1305.5 306.9" xml:space="preserve">
<g>
	<path fill="#34A2D5" d="M446.8,107.7c-11.6,0-20.7,4.1-27.4,12.3c-6.6,8.2-10,19.6-10,34c0,15.1,3.2,26.6,9.6,34.4
		c6.4,7.8,15.6,11.7,27.7,11.7c5.2,0,10.3-0.5,15.2-1.6s10-2.4,15.3-4v17.3c-9.7,3.7-20.7,5.5-32.9,5.5c-18.1,0-32-5.5-41.6-16.4
		c-9.7-11-14.5-26.6-14.5-47c0-12.8,2.4-24.1,7.1-33.7c4.7-9.6,11.5-17,20.4-22.1c8.9-5.1,19.3-7.7,31.3-7.7c12.6,0,24.3,2.6,35,7.9
		l-7.3,16.8c-4.2-2-8.6-3.7-13.2-5.2C456.8,108.5,451.9,107.7,446.8,107.7z"/>
	<path fill="#34A2D5" d="M521.6,215.7h-19.9V84.2h19.9V215.7z"/>
	<path fill="#34A2D5" d="M608.4,215.7l-4-13h-0.7c-4.5,5.7-9,9.6-13.6,11.6c-4.6,2.1-10.4,3.1-17.6,3.1c-9.2,0-16.3-2.5-21.5-7.4
		c-5.2-5-7.7-12-7.7-21c0-9.6,3.6-16.9,10.7-21.8c7.2-4.9,18-7.6,32.7-8l16.1-0.5v-5c0-6-1.4-10.4-4.2-13.4c-2.8-3-7.1-4.4-13-4.4
		c-4.8,0-9.4,0.7-13.8,2.1c-4.4,1.4-8.6,3.1-12.7,5l-6.4-14.2c5.1-2.6,10.6-4.7,16.6-6c6-1.4,11.7-2.1,17.1-2.1
		c11.9,0,20.9,2.6,26.9,7.8c6.1,5.2,9.1,13.3,9.1,24.4v62.9H608.4z M578.9,202.1c7.2,0,13-2,17.4-6c4.4-4,6.5-9.7,6.5-16.9v-8.1
		l-12,0.5c-9.3,0.3-16.1,1.9-20.4,4.7c-4.3,2.8-6.4,7.1-6.4,12.8c0,4.2,1.2,7.4,3.7,9.7C570.2,201,573.9,202.1,578.9,202.1z"/>
	<path fill="#34A2D5" d="M697.7,120.5c4,0,7.3,0.3,9.9,0.8l-1.9,18.5c-2.8-0.7-5.7-1-8.8-1c-7.9,0-14.4,2.6-19.3,7.8
		c-4.9,5.2-7.4,11.9-7.4,20.2v48.8h-19.9v-93.4h15.5l2.6,16.5h1c3.1-5.6,7.1-10,12.1-13.3C686.6,122.2,692,120.5,697.7,120.5z"/>
	<path fill="#34A2D5" d="M723.7,97.5c0-3.5,1-6.3,2.9-8.2c1.9-1.9,4.7-2.9,8.3-2.9c3.5,0,6.2,1,8.2,2.9c1.9,1.9,2.9,4.6,2.9,8.2
		c0,3.4-1,6-2.9,8c-1.9,1.9-4.7,2.9-8.2,2.9c-3.6,0-6.4-1-8.3-2.9C724.7,103.5,723.7,100.9,723.7,97.5z M744.8,215.7h-19.9v-93.4
		h19.9V215.7z"/>
	<path fill="#34A2D5" d="M808,201.3c4.8,0,9.7-0.8,14.5-2.3v15c-2.2,1-5,1.8-8.5,2.4c-3.5,0.6-7.1,1-10.8,1
		c-18.8,0-28.2-9.9-28.2-29.7v-50.3h-12.8v-8.8l13.7-7.3l6.8-19.8H795v20.8h26.6v15H795v50c0,4.8,1.2,8.3,3.6,10.6
		C800.9,200.2,804.1,201.3,808,201.3z"/>
	<path fill="#34A2D5" d="M827,122.2h21.6l19,53c2.9,7.5,4.8,14.6,5.7,21.3h0.7c0.5-3.1,1.4-6.9,2.8-11.3s8.5-25.4,21.5-63h21.5
		l-40,105.8c-7.3,19.4-19.4,29.1-36.3,29.1c-4.4,0-8.7-0.5-12.8-1.4v-15.7c3,0.7,6.4,1,10.2,1c9.6,0,16.3-5.5,20.2-16.6l3.5-8.8
		L827,122.2z"/>
	<path fill="#34A2D5" d="M988.6,107.7c-11.6,0-20.7,4.1-27.4,12.3c-6.6,8.2-10,19.6-10,34c0,15.1,3.2,26.6,9.6,34.4
		s15.6,11.7,27.8,11.7c5.2,0,10.3-0.5,15.2-1.6c4.9-1,10-2.4,15.3-4v17.3c-9.7,3.7-20.7,5.5-32.9,5.5c-18.1,0-32-5.5-41.6-16.4
		c-9.7-11-14.5-26.6-14.5-47c0-12.8,2.4-24.1,7.1-33.7s11.5-17,20.4-22.1c8.9-5.1,19.3-7.7,31.3-7.7c12.6,0,24.3,2.6,35,7.9
		l-7.3,16.8c-4.2-2-8.6-3.7-13.2-5.2C998.6,108.5,993.7,107.7,988.6,107.7z"/>
	<path fill="#34A2D5" d="M1102,215.7l-4-13h-0.7c-4.5,5.7-9,9.6-13.6,11.6c-4.6,2.1-10.4,3.1-17.6,3.1c-9.2,0-16.3-2.5-21.5-7.4
		c-5.2-5-7.7-12-7.7-21c0-9.6,3.6-16.9,10.7-21.8c7.2-4.9,18-7.6,32.7-8l16.1-0.5v-5c0-6-1.4-10.4-4.2-13.4c-2.8-3-7.1-4.4-13-4.4
		c-4.8,0-9.4,0.7-13.8,2.1c-4.4,1.4-8.6,3.1-12.7,5l-6.4-14.2c5.1-2.6,10.6-4.7,16.6-6c6-1.4,11.7-2.1,17.1-2.1
		c11.9,0,20.9,2.6,26.9,7.8c6.1,5.2,9.1,13.3,9.1,24.4v62.9H1102z M1072.4,202.1c7.2,0,13-2,17.4-6c4.4-4,6.5-9.7,6.5-16.9v-8.1
		l-12,0.5c-9.3,0.3-16.1,1.9-20.4,4.7c-4.3,2.8-6.4,7.1-6.4,12.8c0,4.2,1.2,7.4,3.7,9.7C1063.8,201,1067.5,202.1,1072.4,202.1z"/>
	<path fill="#34A2D5" d="M1191.3,120.5c4,0,7.3,0.3,9.9,0.8l-1.9,18.5c-2.8-0.7-5.7-1-8.8-1c-7.9,0-14.4,2.6-19.3,7.8
		c-4.9,5.2-7.4,11.9-7.4,20.2v48.8h-19.9v-93.4h15.5l2.6,16.5h1c3.1-5.6,7.1-10,12.1-13.3C1180.2,122.2,1185.6,120.5,1191.3,120.5z"
		/>
	<path fill="#34A2D5" d="M1259.3,217.4c-14.5,0-25.9-4.2-34.1-12.7c-8.2-8.5-12.3-20.1-12.3-35c0-15.3,3.8-27.3,11.4-36
		c7.6-8.7,18-13.1,31.3-13.1c12.3,0,22.1,3.7,29.2,11.2c7.2,7.5,10.7,17.8,10.7,30.9v10.7h-62.3c0.3,9.1,2.7,16,7.3,20.9
		c4.6,4.9,11.1,7.3,19.5,7.3c5.5,0,10.7-0.5,15.4-1.6s9.9-2.8,15.3-5.2V211c-4.8,2.3-9.7,3.9-14.7,4.9
		C1271.3,216.9,1265.7,217.4,1259.3,217.4z M1255.7,135.6c-6.3,0-11.4,2-15.2,6c-3.8,4-6.1,9.8-6.8,17.5h42.4
		c-0.1-7.7-2-13.6-5.6-17.5C1266.9,137.6,1262,135.6,1255.7,135.6z"/>
</g>
<g>
	<defs>
		<rect id="SVGID_1_" x="11.6" y="10.4" width="318.2" height="285.2"/>
	</defs>
	<clipPath id="SVGID_2_">
		<use xlink:href="#SVGID_1_"  overflow="visible"/>
	</clipPath>
	<polygon clip-path="url(#SVGID_2_)" fill="#35A4D8" points="155.7,137 155.7,96.2 188.3,96.2 188.3,137 230.9,137 230.9,167.9 
		188.7,167.9 188.7,208.7 156.1,208.7 156.1,167.9 113.5,167.9 113.5,137 	"/>
	<polygon clip-path="url(#SVGID_2_)" fill="#FFFFFF" points="132.9,248.7 65.1,248.7 65.1,56.2 132.9,56.2 132.9,70 78.9,70 
		78.9,234.9 132.9,234.9 	"/>
	<polygon clip-path="url(#SVGID_2_)" fill="#FFFFFF" points="11.2,9.3 11.2,295.6 78.9,295.6 78.9,281.9 25,281.9 25,23 78.9,23 
		78.9,9.3 	"/>
	<polygon clip-path="url(#SVGID_2_)" fill="#FFFFFF" points="276.7,248.7 209,248.7 209,234.9 262.9,234.9 262.9,70 209,70 
		209,56.2 276.7,56.2 	"/>
	<polygon clip-path="url(#SVGID_2_)" fill="#FFFFFF" points="262.9,9.3 262.9,23 316.9,23 316.9,281.9 262.9,281.9 262.9,295.6 
		330.6,295.6 330.6,9.3 	"/>
</g>
</svg>
